# Blender v2.93.3 OBJ File: 'big_wave_bullet.blend'
# www.blender.org
mtllib big_wave_bullet.mtl
o BezierCurve_BezierCurve.003
v -0.250000 0.000000 0.000000
v -0.246302 0.000000 -0.066578
v -0.232581 0.000000 -0.130822
v -0.209774 0.000000 -0.192074
v -0.178815 0.000000 -0.249675
v -0.140641 0.000000 -0.302966
v -0.096188 0.000000 -0.351288
v -0.046391 0.000000 -0.393984
v 0.007815 0.000000 -0.430393
v 0.065492 0.000000 -0.459858
v 0.125706 0.000000 -0.481720
v 0.187521 0.000000 -0.495320
v 0.250000 0.000000 -0.500000
v 0.192708 0.000000 -0.432581
v 0.145833 0.000000 -0.356481
v 0.109375 0.000000 -0.273437
v 0.083333 0.000000 -0.185185
v 0.067708 0.000000 -0.093461
v 0.062500 0.000000 0.000000
v 0.067708 0.000000 0.093461
v 0.083333 0.000000 0.185185
v 0.109375 0.000000 0.273438
v 0.145833 0.000000 0.356482
v 0.192708 0.000000 0.432581
v 0.250000 0.000000 0.500000
v 0.187647 0.000000 0.494630
v 0.126165 0.000000 0.479211
v 0.066421 0.000000 0.454778
v 0.009282 0.000000 0.422366
v -0.044384 0.000000 0.383008
v -0.093711 0.000000 0.337742
v -0.137832 0.000000 0.287601
v -0.175880 0.000000 0.233620
v -0.206988 0.000000 0.176835
v -0.230288 0.000000 0.118279
v -0.244915 0.000000 0.058990
l 1 2
l 2 3
l 3 4
l 4 5
l 5 6
l 6 7
l 7 8
l 8 9
l 9 10
l 10 11
l 11 12
l 12 13
l 13 14
l 14 15
l 15 16
l 16 17
l 17 18
l 18 19
l 19 20
l 20 21
l 21 22
l 22 23
l 23 24
l 24 25
l 25 26
l 26 27
l 27 28
l 28 29
l 29 30
l 30 31
l 31 32
l 32 33
l 33 34
l 34 35
l 35 36
l 36 1
o BezierCurve.002_BezierCurve.005
v -0.500000 0.000000 0.000000
v -0.492604 0.000000 -0.133156
v -0.465163 0.000000 -0.261645
v -0.419548 0.000000 -0.384149
v -0.357631 0.000000 -0.499350
v -0.281283 0.000000 -0.605932
v -0.192376 0.000000 -0.702576
v -0.092781 0.000000 -0.787967
v 0.015629 0.000000 -0.860786
v 0.130984 0.000000 -0.919716
v 0.251412 0.000000 -0.963440
v 0.375041 0.000000 -0.990641
v 0.500000 0.000000 -1.000000
v 0.385417 0.000000 -0.865162
v 0.291667 0.000000 -0.712963
v 0.218750 0.000000 -0.546875
v 0.166667 0.000000 -0.370370
v 0.135417 0.000000 -0.186921
v 0.125000 0.000000 0.000000
v 0.135417 0.000000 0.186921
v 0.166667 0.000000 0.370371
v 0.218750 0.000000 0.546875
v 0.291667 0.000000 0.712963
v 0.385417 0.000000 0.865162
v 0.500000 0.000000 1.000000
v 0.375293 0.000000 0.989261
v 0.252329 0.000000 0.958423
v 0.132842 0.000000 0.909556
v 0.018564 0.000000 0.844731
v -0.088768 0.000000 0.766017
v -0.187423 0.000000 0.675484
v -0.275665 0.000000 0.575201
v -0.351760 0.000000 0.467240
v -0.413975 0.000000 0.353669
v -0.460577 0.000000 0.236559
v -0.489829 0.000000 0.117979
vt 0.000000 0.000000
vt 0.000000 0.000000
vt 0.000000 0.000000
vt 0.000000 0.000000
vt 0.000000 0.000000
vt 0.000000 0.000000
vt 0.000000 0.000000
vt 0.000000 0.000000
vt 0.000000 0.000000
vt 0.000000 0.000000
vt 0.000000 0.000000
vt 0.000000 0.000000
vt 0.000000 0.000000
vt 0.000000 0.000000
vt 0.000000 0.000000
vt 0.000000 0.000000
vt 0.000000 0.000000
vt 0.000000 0.000000
vt 0.000000 0.000000
vt 0.000000 0.000000
vt 0.000000 0.000000
vt 0.000000 0.000000
vt 0.000000 0.000000
vt 0.000000 0.000000
vt 0.000000 0.000000
vt 0.000000 0.000000
vt 0.000000 0.000000
vt 0.000000 0.000000
vt 0.000000 0.000000
vt 0.000000 0.000000
vt 0.000000 0.000000
vt 0.000000 0.000000
vt 0.000000 0.000000
vt 0.000000 0.000000
vt 0.000000 0.000000
vt 0.000000 0.000000
vn 0.0000 1.0000 0.0000
usemtl Material
s off
f 37/1/1 72/2/1 71/3/1 70/4/1 69/5/1 68/6/1 67/7/1 66/8/1 65/9/1 64/10/1 63/11/1 62/12/1 61/13/1 60/14/1 59/15/1 58/16/1 57/17/1 56/18/1 55/19/1 54/20/1 53/21/1 52/22/1 51/23/1 50/24/1 49/25/1 48/26/1 47/27/1 46/28/1 45/29/1 44/30/1 43/31/1 42/32/1 41/33/1 40/34/1 39/35/1 38/36/1
